<svg width="80" height="80" viewBox="0 0 80 80" fill="none" xmlns="http://www.w3.org/2000/svg">
<circle cx="40" cy="40" r="39.25" fill="white" stroke="#2C9AEC" stroke-width="1.5"/>
<g clip-path="url(#clip0_1160_742)">
<path d="M39.46 59.92C28.1783 59.92 19 50.7417 19 39.46C19 28.1783 28.1783 19 39.46 19C50.7417 19 59.92 28.1783 59.92 39.46C59.92 50.7417 50.7417 59.92 39.46 59.92Z" fill="#B6D4EC"/>
<path d="M59.92 39.46C59.92 28.1783 50.7417 19 39.46 19V59.92C50.7417 59.92 59.92 50.7417 59.92 39.46Z" fill="#87BEE7" fill-opacity="0.9"/>
<path d="M39.46 21.3977C29.5004 21.3977 21.3977 29.5004 21.3977 39.46C21.3977 49.4197 29.5004 57.5224 39.46 57.5224C49.4197 57.5224 57.5224 49.4197 57.5224 39.46C57.5224 29.5004 49.4197 21.3977 39.46 21.3977Z" fill="white"/>
<path d="M57.5223 39.46C57.5223 29.5004 49.4196 21.3977 39.46 21.3977V57.5224C49.4196 57.5224 57.5223 49.4197 57.5223 39.46Z" fill="white"/>
<path d="M42.0282 41.9428C45.5214 41.9428 48.3634 39.1009 48.3634 35.6076C48.3634 32.0282 45.4477 29.2725 42.0282 29.2725H35.6078C34.9457 29.2725 34.4089 29.8092 34.4089 30.4713V39.5451H33.0396C32.3776 39.5451 31.8408 40.0818 31.8408 40.7439C31.8408 41.406 32.3776 41.9427 33.0396 41.9427H34.4089V44.6814H33.0396C32.3776 44.6814 31.8408 45.2182 31.8408 45.8802C31.8408 46.5423 32.3776 47.0791 33.0396 47.0791H34.4089V49.7325C34.4089 50.3945 34.9457 50.9313 35.6078 50.9313C36.2698 50.9313 36.8066 50.3945 36.8066 49.7325V47.0791H42.0282C42.6903 47.0791 43.227 46.5423 43.227 45.8802C43.227 45.2182 42.6903 44.6814 42.0282 44.6814H36.8066V41.9427H42.0282V41.9428ZM36.8066 31.6702H42.0282C44.1803 31.6702 45.9657 33.4051 45.9657 35.6077C45.9657 37.7789 44.1994 39.5452 42.0282 39.5452H36.8066V31.6702Z" fill="#6AA9FF"/>
<path d="M43.227 45.8805C43.227 45.2184 42.6902 44.6816 42.0282 44.6816H39.46V47.0793H42.0282C42.6902 47.0793 43.227 46.5425 43.227 45.8805Z" fill="#6AA9FF" fill-opacity="0.9"/>
<path d="M42.0282 31.6704C44.1802 31.6704 45.9657 33.4052 45.9657 35.6079C45.9657 37.779 44.1993 39.5454 42.0282 39.5454H39.46V41.943H42.0282C45.5214 41.943 48.3633 39.1011 48.3633 35.6079C48.3633 32.0284 45.4476 29.2727 42.0282 29.2727H39.46V31.6704H42.0282Z" fill="#6AA9FF" fill-opacity="0.9"/>
</g>
<defs>
<clipPath id="clip0_1160_742">
<rect width="40.92" height="40.92" fill="white" transform="translate(19 19)"/>
</clipPath>
</defs>
</svg>
