<svg width="80" height="80" viewBox="0 0 80 80" fill="none" xmlns="http://www.w3.org/2000/svg">
<circle cx="40" cy="40" r="39.25" fill="white" stroke="#2C9AEC" stroke-width="1.5"/>
<path d="M20.08 31.8505C21.0298 30.3805 22.0563 29.0294 23.2192 27.7405C23.356 27.589 23.6075 27.702 23.587 27.9062C23.2955 30.8159 22.4379 33.7853 20.7538 36.1652C20.4268 34.7473 20.1874 33.3026 20.08 31.8505Z" fill="#6AA9FF"/>
<path d="M60.5776 31.8505C59.6278 30.3805 58.6013 29.0294 57.4384 27.7405C57.3016 27.589 57.0501 27.702 57.0706 27.9062C57.3621 30.8159 58.2197 33.7853 59.9038 36.1652C60.2308 34.7473 60.4702 33.3026 60.5776 31.8505Z" fill="#6AA9FF"/>
<path d="M20.754 36.1662C19.3525 34.936 18.1072 33.6305 16.942 32.1916C16.8088 32.0271 16.5446 32.1371 16.5686 32.3481C16.9415 35.6274 18.7989 39.2303 22.0495 40.2714C21.5229 38.9375 21.0757 37.5654 20.754 36.1662Z" fill="#6AA9FF"/>
<path d="M59.9036 36.1662C61.3051 34.936 62.5504 33.6305 63.7156 32.1916C63.8488 32.0271 64.113 32.1371 64.089 32.3481C63.7161 35.6274 61.8587 39.2303 58.6081 40.2714C59.1347 38.9375 59.5819 37.5654 59.9036 36.1662Z" fill="#6AA9FF"/>
<path d="M22.049 40.2703C22.532 38.6229 23.1201 37.0674 23.857 35.5321C23.9444 35.35 24.2132 35.3826 24.2544 35.581C24.8347 38.3713 24.8468 41.4199 23.9203 44.1059C23.2099 42.8745 22.5709 41.5948 22.049 40.2703Z" fill="#6AA9FF"/>
<path d="M58.6086 40.2703C58.1256 38.6229 57.5374 37.0674 56.8006 35.5321C56.7132 35.35 56.4444 35.3826 56.4032 35.581C55.8229 38.3713 55.8108 41.4199 56.7373 44.1059C57.4477 42.8745 58.0867 41.5948 58.6086 40.2703Z" fill="#6AA9FF"/>
<path d="M23.9208 44.1068C22.2433 43.3728 20.6817 42.5253 19.1547 41.536C18.9786 41.4218 18.7623 41.607 18.8474 41.7999C20.1592 44.7748 22.9723 47.5859 26.3222 47.6123C25.4439 46.5028 24.6285 45.3352 23.9208 44.1068Z" fill="#6AA9FF"/>
<path d="M56.7369 44.1068C58.4144 43.3728 59.976 42.5253 61.503 41.536C61.6791 41.4218 61.8954 41.607 61.8103 41.7999C60.4985 44.7748 57.6854 47.5859 54.3356 47.6123C55.2139 46.5028 56.0292 45.3352 56.7369 44.1068Z" fill="#6AA9FF"/>
<path d="M26.3214 47.6116C26.3126 45.9027 26.4305 44.2516 26.6974 42.5764C26.7292 42.3772 26.9941 42.3298 27.091 42.5068C28.4497 44.9904 29.3142 47.9025 29.2068 50.7273C28.1763 49.7587 27.2001 48.7233 26.3214 47.6116Z" fill="#6AA9FF"/>
<path d="M54.3361 47.6116C54.345 45.9027 54.2271 44.2516 53.9602 42.5764C53.9284 42.3772 53.6635 42.3298 53.5666 42.5068C52.2079 44.9904 51.3434 47.9025 51.4508 50.7273C52.4813 49.7587 53.4575 48.7233 54.3361 47.6116Z" fill="#6AA9FF"/>
<path d="M29.2075 50.7279C27.3986 50.5182 25.6647 50.1689 23.9235 49.6775C23.7224 49.6207 23.5698 49.8614 23.7066 50.0209C25.8195 52.4843 29.3213 54.3415 32.531 53.3932C31.3647 52.5855 30.2428 51.7023 29.2075 50.7279Z" fill="#6AA9FF"/>
<path d="M51.4501 50.7279C53.259 50.5182 54.9929 50.1689 56.7341 49.6775C56.9352 49.6207 57.0878 49.8614 56.951 50.0209C54.8381 52.4843 51.3363 54.3415 48.1265 53.3932C49.2929 52.5855 50.4148 51.7023 51.4501 50.7279Z" fill="#6AA9FF"/>
<path d="M40.5398 56.4129C39.1087 55.9721 37.7817 55.4547 36.5955 54.8752L36.5947 54.8748L36.5941 54.8745C35.2705 54.2287 34.0572 53.5252 32.9874 52.7833L32.9867 52.7828C31.7861 51.9516 30.7002 51.081 29.7589 50.1949L29.7581 50.1942C28.6965 49.1963 27.7534 48.1781 26.9552 47.1681L26.954 47.1666C26.0491 46.0231 25.2648 44.8784 24.6229 43.764L24.6221 43.7628C23.8894 42.4925 23.2779 41.2392 22.8044 40.038C22.2615 38.6627 21.838 37.3216 21.5463 36.0529L21.5458 36.0511C21.2089 34.5901 20.9887 33.1809 20.8913 31.8627C20.8901 31.8468 20.8876 31.8312 20.8854 31.8155C20.7084 29.7815 20.7447 27.7073 20.9952 25.6493C21.0455 25.2355 20.7538 24.8578 20.3437 24.8057C19.9338 24.7535 19.5605 25.0466 19.5102 25.4606C19.2443 27.6459 19.2073 29.8493 19.4001 32.0097C19.4015 32.0244 19.4041 32.0386 19.4062 32.0531C19.5123 33.4248 19.7413 34.8828 20.0887 36.3892L20.0888 36.39C20.3973 37.7316 20.8429 39.1443 21.4132 40.589C21.4136 40.5901 21.4139 40.5914 21.4143 40.5925C21.9151 41.8633 22.5596 43.1846 23.3297 44.5196L23.33 44.5201C24.0091 45.6989 24.8355 46.9059 25.7865 48.1074L25.7868 48.1079L25.7878 48.109C26.6318 49.1766 27.6251 50.2495 28.7401 51.2976L28.7413 51.2987C29.7364 52.2352 30.8801 53.1527 32.1409 54.0258L32.1419 54.0265C33.2742 54.8119 34.5544 55.5546 35.9468 56.2339L35.9473 56.2341C37.2028 56.8477 38.6024 57.3938 40.1073 57.8574C40.221 57.8923 40.3363 57.8988 40.4459 57.8807C40.7179 57.8359 40.9546 57.6401 41.0397 57.3558C41.1591 56.9569 40.9353 56.5348 40.5398 56.4129Z" fill="#ADDEF2"/>
<path d="M40.1178 56.4129C41.5489 55.9721 42.8759 55.4547 44.0621 54.8752L44.0629 54.8748L44.0634 54.8745C45.3871 54.2287 46.6004 53.5252 47.6702 52.7833L47.6709 52.7828C48.8715 51.9516 49.9574 51.081 50.8987 50.1949L50.8995 50.1942C51.9611 49.1963 52.9042 48.1781 53.7024 47.1681L53.7036 47.1666C54.6085 46.0231 55.3928 44.8784 56.0347 43.7639L56.0355 43.7628C56.7682 42.4925 57.3797 41.2392 57.8532 40.038C58.3961 38.6627 58.8196 37.3216 59.1113 36.0529L59.1118 36.0511C59.4486 34.5901 59.6689 33.1809 59.7663 31.8627C59.7675 31.8468 59.77 31.8312 59.7722 31.8155C59.9492 29.7815 59.9129 27.7073 59.6624 25.6493C59.6121 25.2355 59.9038 24.8578 60.3139 24.8057C60.7238 24.7535 61.0971 25.0466 61.1474 25.4606C61.4133 27.6459 61.4503 29.8493 61.2575 32.0097C61.2561 32.0244 61.2535 32.0386 61.2514 32.0531C61.1453 33.4248 60.9163 34.8828 60.5689 36.3892L60.5688 36.39C60.2602 37.7316 59.8147 39.1443 59.2444 40.589C59.244 40.5901 59.2437 40.5914 59.2433 40.5925C58.7425 41.8633 58.098 43.1846 57.3279 44.5195L57.3276 44.5201C56.6485 45.6989 55.8221 46.9059 54.8711 48.1074L54.8708 48.1079L54.8698 48.109C54.0258 49.1766 53.0325 50.2495 51.9175 51.2976L51.9163 51.2987C50.9212 52.2352 49.7775 53.1527 48.5166 54.0258L48.5157 54.0265C47.3833 54.8119 46.1032 55.5546 44.7108 56.2339L44.7103 56.2341C43.4548 56.8477 42.0551 57.3938 40.5503 57.8574C40.4366 57.8923 40.3213 57.8988 40.2117 57.8807C39.9396 57.8359 39.7029 57.6401 39.6179 57.3558C39.4985 56.9569 39.7223 56.5348 40.1178 56.4129Z" fill="#ADDEF2"/>
<path d="M36.5275 43.9362C34.3715 43.9363 32.2701 43.1648 30.5979 41.7276C28.535 39.9545 27.3518 37.3689 27.3518 34.6339V32.0798C27.3518 31.7845 27.4658 31.5069 27.6727 31.2984C27.879 31.0907 28.1529 30.9763 28.444 30.9763C28.445 30.9763 28.446 30.9763 28.4469 30.9763L35.0679 30.991C35.4809 30.9919 35.815 31.3308 35.8141 31.748C35.8131 32.1645 35.4784 32.5017 35.0663 32.5017C35.0657 32.5017 35.0652 32.5017 35.0646 32.5017L28.8475 32.4879L28.8474 34.6338C28.8474 36.9251 29.8387 39.0914 31.5671 40.5769C33.2823 42.0511 35.5371 42.6887 37.7522 42.3257C37.8291 42.3131 37.9064 42.2999 37.9845 42.2861C38.3918 42.2149 38.7789 42.489 38.8502 42.8998C38.9214 43.3108 38.6493 43.7022 38.2425 43.7742C38.1582 43.789 38.0745 43.8034 37.9916 43.817C37.5039 43.8969 37.0141 43.9362 36.5275 43.9362Z" fill="#ADDEF2"/>
<path d="M45.0268 43.9361C44.54 43.9361 44.0507 43.8968 43.5627 43.817C43.4797 43.8034 43.396 43.789 43.3117 43.7742C42.9048 43.7022 42.6328 43.3107 42.7041 42.8999C42.7753 42.4889 43.1633 42.2147 43.5697 42.2862C43.6477 42.3 43.7252 42.3132 43.802 42.3257C46.0176 42.6884 48.272 42.0511 49.9871 40.5769C51.7155 39.0915 52.7068 36.9252 52.7068 34.6338V32.4879L46.4898 32.5017C46.4892 32.5017 46.4886 32.5017 46.488 32.5017C46.0758 32.5017 45.7411 32.1646 45.7403 31.748C45.7393 31.3308 46.0734 30.9919 46.4865 30.991L53.1077 30.9763C53.1087 30.9763 53.1096 30.9763 53.1106 30.9763C53.4015 30.9763 53.6754 31.0906 53.8817 31.2984C54.0886 31.507 54.2026 31.7844 54.2026 32.0798V34.6339C54.2026 37.3689 53.0195 39.9545 50.9565 41.7276C49.2844 43.1646 47.1828 43.9361 45.0268 43.9361Z" fill="#ADDEF2"/>
<path d="M35.86 54.8829H45.6943C41.6207 49.6654 42.0458 42.146 42.0458 42.146H40.7772H39.5086C39.5086 42.1461 39.9337 49.6655 35.86 54.8829Z" fill="#B6D4EC"/>
<path d="M42.0458 42.146H40.7773H39.5087C39.5087 42.146 39.5745 43.3135 39.4052 45.0474C39.0825 48.3526 39.8943 51.6868 41.8095 54.3864C41.9283 54.554 42.0515 54.7196 42.1789 54.8828H45.6945C41.6208 49.6654 42.0458 42.146 42.0458 42.146Z" fill="#ADDEF2"/>
<path d="M33.3589 28.812V35.4017C33.3589 39.3003 35.1935 42.9669 38.3012 45.2793C39.7737 46.375 41.7808 46.375 43.2533 45.2793C46.361 42.967 48.1956 39.3003 48.1956 35.4017V28.812H33.3589Z" fill="#B6D4EC"/>
<path d="M44.6634 28.812V35.4017C44.6634 39.3003 42.8288 42.9669 39.7211 45.2793C39.4957 45.4471 39.2577 45.5888 39.0111 45.7052C40.3756 46.3491 42.0062 46.2073 43.2532 45.2793C46.361 42.967 48.1955 39.3003 48.1955 35.4017V28.812H44.6634Z" fill="#ADDEF2"/>
<path d="M48.7271 29.8412H32.8274C32.5878 29.8412 32.3936 29.645 32.3936 29.403V27.5869C32.3936 27.3449 32.5878 27.1487 32.8274 27.1487H48.7271C48.9667 27.1487 49.161 27.3449 49.161 27.5869V29.403C49.1609 29.645 48.9666 29.8412 48.7271 29.8412Z" fill="#ADDEF2"/>
<path d="M48.7271 27.1489H45.6288V29.8414H48.7271C48.9667 29.8414 49.1609 29.6452 49.1609 29.4031V27.5871C49.1609 27.3451 48.9666 27.1489 48.7271 27.1489Z" fill="#6AA9FF"/>
<path d="M49.2136 58.0673H32.4077C32.164 58.0673 31.995 57.8222 32.0794 57.5914L33.3274 54.1759C33.3781 54.037 33.5092 53.9448 33.6557 53.9448H47.9655C48.1121 53.9448 48.2431 54.037 48.2938 54.1759L49.5419 57.5914C49.6263 57.8222 49.4572 58.0673 49.2136 58.0673Z" fill="#ADDEF2"/>
<path d="M49.542 57.5914L48.2939 54.1759C48.2431 54.037 48.1121 53.9448 47.9655 53.9448H44.5522L46.0586 58.0673H49.2136C49.4572 58.0673 49.6263 57.8222 49.542 57.5914Z" fill="#6AA9FF"/>
</svg>
