<svg width="80" height="80" viewBox="0 0 80 80" fill="none" xmlns="http://www.w3.org/2000/svg">
<circle cx="40" cy="40" r="39.25" fill="white" stroke="#2C9AEC" stroke-width="1.5"/>
<path d="M52.3215 36.5537L49.3873 35.9668L43.5187 37.7274L41.7581 38.9011L40.1003 39.5227C39.1479 39.8799 38.2842 40.4391 37.5686 41.162C36.8529 41.8848 36.3024 42.7541 35.9548 43.71L34.7158 47.1171V55.9199H54.669L57.1272 47.624C57.7541 45.5082 57.6161 43.2392 56.7374 41.215C55.8587 39.1907 54.2953 37.5405 52.3215 36.5537Z" fill="#ADDEF2" stroke="#76B0FF" stroke-width="0.55"/>
<path d="M38.8239 52.9856L38.5251 51.8505L49.0039 49.093L50.5961 42.7244L51.7347 43.0091L49.9741 50.0514L38.8239 52.9856Z" fill="#7ED8F6" stroke="#76B0FF" stroke-width="0.55"/>
<path d="M40.5844 25.9902L37.6501 31.272H39.9976V35.9668H43.5187V37.7274L45.2793 39.488L49.3873 35.9668V33.6194L50.561 27.1639L40.5844 25.9902Z" fill="white" stroke="#76B0FF" stroke-width="0.55"/>
<path d="M44.6924 26.5771V30.0983L46.453 28.3377L48.2135 29.5114L46.453 31.8589L49.3872 33.6194L50.561 27.164L44.6924 26.5771Z" fill="#75AEFB" stroke="#76B0FF" stroke-width="0.55"/>
<path d="M50.7158 26.6542C50.7155 27.0251 50.6634 27.3943 50.561 27.7508L40.4898 26.1605L40.4839 26.1597L33.2964 25.2611L33.4416 24.0969L39.6917 24.8782C39.9699 23.9121 40.6034 23.0872 41.4649 22.5691C42.3265 22.051 43.3522 21.8782 44.3359 22.0855L47.5541 22.7626C48.4473 22.9506 49.2487 23.4399 49.8243 24.1483C50.3999 24.8567 50.7146 25.7414 50.7158 26.6542Z" fill="#ADDEF2" stroke="#76B0FF" stroke-width="0.55"/>
<path d="M42.2151 29.3813H41.6932C41.5548 29.3813 41.4221 29.3264 41.3242 29.2285C41.2264 29.1306 41.1714 28.9979 41.1714 28.8595C41.1714 28.7211 41.2264 28.5884 41.3242 28.4905C41.4221 28.3926 41.5548 28.3376 41.6932 28.3376H42.2151C42.3535 28.3376 42.4862 28.3926 42.5841 28.4905C42.6819 28.5884 42.7369 28.7211 42.7369 28.8595C42.7369 28.9979 42.6819 29.1306 42.5841 29.2285C42.4862 29.3264 42.3535 29.3813 42.2151 29.3813Z" fill="#4895FF"/>
<path d="M44.1035 44.1152L44.6902 39.4217L45.8545 39.5672L45.2678 44.2608L44.1035 44.1152Z" fill="#7ED8F6" stroke="#76B0FF" stroke-width="0.55"/>
<path d="M43.5186 37.7275L41.7581 38.9013L42.9318 41.2487L45.2792 39.4881L43.5186 37.7275Z" fill="#ADDEF2" stroke="#76B0FF" stroke-width="0.55"/>
<path d="M45.2793 39.4879L46.453 41.2485L52.3216 36.5537L49.3873 35.9668L45.2793 39.4879Z" fill="#ADDEF2" stroke="#76B0FF" stroke-width="0.55"/>
<path d="M22 39.2209H32.9588V52.7889H22V39.2209Z" fill="#A7E5FF" stroke="#76B0FF" stroke-width="0.55"/>
<path d="M32.9587 39.2209H40.7864V52.7889H32.9587V39.2209Z" fill="#9DD5FF" stroke="#76B0FF" stroke-width="0.55"/>
<path d="M43.5188 37.7274V35.9669L45.2794 34.2063L46.1093 35.0362L43.5188 37.7274Z" fill="white" stroke="#76B0FF" stroke-width="0.55"/>
<path d="M28.8473 52.9858H24.8043C24.6416 52.9858 24.4805 53.0179 24.3302 53.0801C24.1799 53.1424 24.0434 53.2336 23.9284 53.3487C23.8133 53.4637 23.7221 53.6002 23.6598 53.7505C23.5976 53.9008 23.5656 54.0619 23.5656 54.2246C23.5656 54.5294 23.678 54.8235 23.8813 55.0507C24.0846 55.2778 24.3645 55.422 24.6675 55.4557L28.8473 55.9201H37.0633V52.9858H28.8473Z" fill="white" stroke="#76B0FF" stroke-width="0.55"/>
<path d="M38.8239 52.9858V55.9201H34.129L29.9491 55.4557C29.6344 55.4207 29.345 55.2665 29.1404 55.0247C28.9358 54.783 28.8316 54.4721 28.8492 54.1559C28.8668 53.8397 29.0048 53.5422 29.2348 53.3246C29.4649 53.107 29.7696 52.9857 30.0863 52.9858H34.0989C34.316 52.9858 34.5304 52.9378 34.7267 52.8451C34.923 52.7524 35.0964 52.6175 35.2343 52.4498C35.3723 52.2822 35.4714 52.0862 35.5246 51.8757C35.5777 51.6652 35.5836 51.4456 35.5419 51.2326L35.5331 51.1893C35.506 51.0511 35.5099 50.9086 35.5445 50.7721C35.579 50.6356 35.6433 50.5084 35.7327 50.3996C35.8222 50.2909 35.9346 50.2033 36.0619 50.1431C36.1892 50.0829 36.3283 50.0516 36.4691 50.0515H36.505C36.6731 50.0515 36.8382 50.0949 36.9845 50.1775C37.1308 50.2602 37.2532 50.3793 37.3398 50.5232L38.8239 52.9858Z" fill="white" stroke="#76B0FF" stroke-width="0.55"/>
</svg>
