<svg width="80" height="80" viewBox="0 0 80 80" fill="none" xmlns="http://www.w3.org/2000/svg">
<circle cx="40" cy="40" r="39.25" fill="white" stroke="#2C9AEC" stroke-width="1.5"/>
<g clip-path="url(#clip0_851_439)">
<path d="M35.6034 25.7162L35.819 24.3289L33.355 23.5403L32.725 24.795C32.1938 25.8236 30.6314 25.7448 30.2049 24.6712L29.7028 23.4115L27.1861 23.9584L27.2525 25.3247C27.3089 26.4813 25.927 27.1943 25.0173 26.4761L23.9434 25.6287L22.0369 27.3602L22.771 28.5005C23.3961 29.4692 22.5564 30.789 21.4086 30.6242L20.0213 30.4086L19.2327 32.8726L20.4874 33.5026C21.5156 34.0352 21.4372 35.5962 20.3636 36.0227L19.1039 36.5249L19.6508 39.0415L21.0171 38.9751C22.1737 38.9188 22.8866 40.3007 22.1685 41.2104L21.3211 42.2842L23.0526 44.1907L24.1928 43.4566C25.1605 42.8332 26.4818 43.6684 26.3166 44.819L26.101 46.2063L28.565 46.9949L29.195 45.7402C29.7253 44.7162 31.286 44.7862 31.7151 45.864L32.2173 47.1238L34.7339 46.5768L34.6675 45.2106C34.6114 44.0594 35.9896 43.338 36.9028 44.0592L37.9766 44.9065L39.8831 43.1751L39.149 42.0348C38.5258 41.0677 39.3605 39.7467 40.5114 39.9111L41.8987 40.1267L42.6873 37.6626L41.4326 37.0327C40.4108 36.5046 40.4764 34.9424 41.5564 34.5125L42.8162 34.0104L42.2692 31.4937L40.9029 31.5601C39.7517 31.6163 39.0303 30.238 39.7516 29.3249L40.5989 28.251L38.8674 26.3445L37.7272 27.0787C36.758 27.7036 35.4395 26.8643 35.6034 25.7162ZM36.4937 37.0386C35.5171 40.0901 32.2405 41.7779 29.189 40.8013C26.1375 39.8247 24.4497 36.5481 25.4263 33.4966C26.4029 30.4451 29.6795 28.7573 32.731 29.7339C35.7825 30.7105 37.4703 33.9871 36.4937 37.0386Z" fill="#ADDEF2"/>
<path d="M37.7271 27.0787L38.8674 26.3445L40.5988 28.251L39.7515 29.3249C39.0303 30.238 39.7517 31.6163 40.9029 31.5601L42.2692 31.4937L42.8161 34.0104L41.5563 34.5125C40.4764 34.9424 40.4108 36.5046 41.4326 37.0327L42.6873 37.6626L42.293 38.8946L36.4937 37.0386C37.4703 33.9871 35.7825 30.7105 32.731 29.7339C29.6795 28.7573 26.4029 30.4451 25.4263 33.4966L19.627 31.6406L20.0212 30.4086L21.4086 30.6242C22.5564 30.789 23.3961 29.4692 22.771 28.5005L22.0369 27.3602L23.9434 25.6287L25.0172 26.4761C25.9269 27.1943 27.3088 26.4813 27.2524 25.3247L27.1861 23.9584L29.7027 23.4115L30.2048 24.6712C30.6314 25.7448 32.1937 25.8236 32.725 24.795L33.3549 23.5403L35.819 24.3289L35.6034 25.7162C35.4395 26.8643 36.758 27.7036 37.7271 27.0787Z" fill="#7AD2F7"/>
<path d="M24.9836 33.3549C23.9289 36.6503 25.7519 40.1893 29.0473 41.244C32.3427 42.2986 35.8817 40.4757 36.9364 37.1803C37.991 33.8848 36.1681 30.3459 32.8727 29.2912C29.5772 28.2365 26.0383 30.0595 24.9836 33.3549ZM34.2802 36.3302C33.6944 38.1607 31.7284 39.1738 29.8974 38.5878C28.0664 38.0018 27.0539 36.0355 27.6398 34.205C28.2256 32.3744 30.1916 31.3614 32.0226 31.9474C33.8536 32.5334 34.8661 34.4996 34.2802 36.3302Z" fill="#6AA9FF"/>
<path d="M32.8727 29.2913C36.1681 30.3459 37.9911 33.8849 36.9364 37.1803L34.2803 36.3303C34.8661 34.4997 33.8536 32.5334 32.0226 31.9474C30.1916 31.3615 28.2257 32.3745 27.6398 34.2051L24.9836 33.355C26.0383 30.0596 29.5773 28.2366 32.8727 29.2913Z" fill="#6AA9FF"/>
</g>
<g clip-path="url(#clip1_851_439)">
<path d="M57.8682 43.7743L58.855 43.0427L57.805 41.0372L56.6415 41.4315C55.6785 41.7457 54.7539 40.7364 55.148 39.8056L55.6094 38.7124L53.7058 37.5064L52.9075 38.3981C52.2318 39.1532 50.9329 38.7479 50.8077 37.7415L50.6596 36.5538L48.4081 36.4606L48.1646 37.622C47.9585 38.6094 46.6244 38.9155 46.0108 38.1074L45.2792 37.1205L43.2737 38.1706L43.668 39.334C43.9811 40.2976 42.9729 41.2217 42.0421 40.8276L40.9489 40.3661L39.7429 42.2697L40.6347 43.068C41.3897 43.7438 40.9845 45.0426 39.9781 45.1678L38.7904 45.3159L38.6971 47.5675L39.8585 47.811C40.8444 48.0174 41.154 49.3496 40.3439 49.9648L39.357 50.6963L40.4071 52.7018L41.5706 52.3075C42.5302 51.9956 43.4592 52.9984 43.0641 53.9334L42.6027 55.0266L44.5062 56.2327L45.3046 55.3409C45.9771 54.5893 47.2789 54.9871 47.4044 55.9975L47.5525 57.1852L49.804 57.2784L50.0475 56.1171C50.2538 55.1317 51.5855 54.822 52.2013 55.6316L52.9329 56.6185L54.9384 55.5685L54.544 54.405C54.2322 53.4481 55.2331 52.5154 56.1699 52.9114L57.2632 53.3729L58.4692 51.4693L57.5774 50.671C56.8259 49.9985 57.2236 48.6967 58.234 48.5712L59.4217 48.4231L59.515 46.1715L58.3536 45.928C57.3659 45.7216 57.0605 44.3886 57.8682 43.7743ZM51.4642 51.3734C48.9806 52.6738 45.9025 51.7113 44.6021 49.2277C43.3017 46.7441 44.2642 43.666 46.7479 42.3656C49.2315 41.0652 52.3095 42.0277 53.6099 44.5113C54.9103 46.9949 53.9479 50.073 51.4642 51.3734Z" fill="#ADDEF2"/>
<path d="M58.3536 45.928L59.515 46.1715L59.4217 48.4231L58.234 48.5712C57.2236 48.6967 56.8259 49.9984 57.5774 50.671L58.4692 51.4693L57.2632 53.3729L56.17 52.9114C55.2331 52.5154 54.2322 53.4481 54.5441 54.405L54.9384 55.5684L53.9356 56.0935L51.4643 51.3734C53.9479 50.073 54.9104 46.9949 53.61 44.5113C52.3096 42.0277 49.2315 41.0652 46.7479 42.3656L44.2765 37.6455L45.2792 37.1205L46.0108 38.1074C46.6244 38.9154 47.9585 38.6094 48.1646 37.6219L48.4081 36.4606L50.6596 36.5538L50.8077 37.7415C50.933 38.7479 52.2318 39.1532 52.9075 38.3981L53.7059 37.5063L55.6094 38.7124L55.148 39.8056C54.7539 40.7364 55.6785 41.7457 56.6416 41.4315L57.805 41.0372L58.8551 43.0427L57.8682 43.7742C57.0605 44.3886 57.3659 45.7216 58.3536 45.928Z" fill="#7AD2F6"/>
<path d="M46.5592 42.0054C43.877 43.4098 42.8374 46.7343 44.2418 49.4165C45.6461 52.0986 48.9707 53.1382 51.6528 51.7338C54.335 50.3295 55.3746 47.0049 53.9702 44.3228C52.5659 41.6406 49.2413 40.6011 46.5592 42.0054ZM50.5209 49.5719C49.031 50.352 47.1839 49.7748 46.4037 48.2845C45.6234 46.7943 46.2012 44.9474 47.6911 44.1673C49.181 43.3872 51.0281 43.9644 51.8083 45.4547C52.5886 46.9449 52.0108 48.7919 50.5209 49.5719Z" fill="#6AA9FF"/>
<path d="M53.9703 44.3227C55.3746 47.0049 54.3351 50.3294 51.6529 51.7338L50.521 49.5719C52.0109 48.7918 52.5887 46.9449 51.8084 45.4547C51.0281 43.9644 49.181 43.3872 47.6911 44.1672L46.5592 42.0054C49.2414 40.601 52.5659 41.6406 53.9703 44.3227Z" fill="#6AA9FF"/>
</g>
<defs>
<clipPath id="clip0_851_439">
<rect width="23.7985" height="23.7985" fill="white" transform="translate(16 42.9736) rotate(-72.2533)"/>
</clipPath>
<clipPath id="clip1_851_439">
<rect width="20.8237" height="20.8237" fill="white" transform="translate(35.0525 42.4751) rotate(-27.6361)"/>
</clipPath>
</defs>
</svg>
