<svg width="21" height="16" viewBox="0 0 21 16" fill="none" xmlns="http://www.w3.org/2000/svg">
<path d="M19.9801 1.85183C19.2248 2.17673 18.4693 2.37963 17.7143 2.46112C18.567 1.94946 19.1438 1.22661 19.4444 0.292637C18.6643 0.755487 17.8319 1.07215 16.9468 1.24278C16.167 0.414376 15.2088 0 14.0715 0C12.9833 0 12.0555 0.383696 11.2876 1.15125C10.5203 1.91877 10.1365 2.84661 10.1365 3.93489C10.1365 4.22722 10.169 4.52784 10.234 4.83644C8.62581 4.75523 7.11722 4.35119 5.70799 3.62429C4.29882 2.8973 3.10289 1.92877 2.12019 0.718662C1.76281 1.32766 1.58407 1.9897 1.58407 2.70439C1.58407 3.37851 1.74242 4.00397 2.05934 4.58063C2.37604 5.15719 2.80254 5.62414 3.3386 5.98155C2.70499 5.95714 2.11211 5.7906 1.55992 5.48196V5.53069C1.55992 6.48101 1.8584 7.31536 2.45528 8.03436C3.05224 8.75328 3.8056 9.2058 4.71516 9.39269C4.37401 9.48192 4.02876 9.5266 3.67958 9.5266C3.45215 9.5266 3.2044 9.50632 2.93643 9.46601C3.18819 10.2537 3.65117 10.9011 4.32519 11.4091C4.99935 11.9166 5.76281 12.1782 6.61563 12.1949C5.18625 13.3155 3.55784 13.8758 1.73043 13.8758C1.38113 13.8758 1.06447 13.8599 0.780151 13.8273C2.60761 15.0048 4.6218 15.5936 6.82285 15.5936C8.21979 15.5936 9.5315 15.3725 10.7575 14.9297C11.9842 14.4873 13.0317 13.8943 13.9009 13.1509C14.7698 12.4079 15.5191 11.5531 16.1485 10.5866C16.7779 9.62005 17.2468 8.61101 17.5557 7.55926C17.8642 6.5073 18.0185 5.45372 18.0185 4.3977C18.0185 4.17026 18.0145 3.99979 18.0062 3.88603C18.7781 3.32589 19.4359 2.64759 19.9801 1.85183Z" fill="white"/>
</svg>
