<svg width="24" height="14" viewBox="0 0 24 14" fill="none" xmlns="http://www.w3.org/2000/svg">
<g clip-path="url(#clip0_82_10338)">
<path d="M23.2097 12.0228C23.1814 11.9619 23.1551 11.9114 23.1306 11.8709C22.7257 11.1419 21.9521 10.2469 20.8102 9.18591L20.786 9.16161L20.774 9.1497L20.7618 9.13748H20.7495C20.2312 8.64342 19.903 8.31123 19.7656 8.14115C19.5141 7.81717 19.4578 7.48922 19.5952 7.15694C19.6923 6.90588 20.0571 6.37569 20.6886 5.56565C21.0208 5.13634 21.2839 4.79228 21.4782 4.53306C22.8795 2.67016 23.487 1.47974 23.3006 0.961345L23.2282 0.840202C23.1796 0.767269 23.054 0.700548 22.8517 0.6397C22.6491 0.578979 22.39 0.568938 22.074 0.609404L18.5753 0.633572C18.5186 0.613488 18.4377 0.615361 18.3323 0.6397C18.227 0.664039 18.1742 0.676251 18.1742 0.676251L18.1133 0.706676L18.065 0.743227C18.0245 0.767396 17.98 0.809906 17.9313 0.870668C17.8829 0.931219 17.8425 1.00228 17.8101 1.08325C17.4292 2.06325 16.9961 2.9744 16.5101 3.81667C16.2104 4.31889 15.9352 4.75415 15.6839 5.12269C15.4328 5.4911 15.2222 5.76253 15.0522 5.93652C14.882 6.11068 14.7285 6.25022 14.5905 6.35561C14.4528 6.46106 14.3477 6.5056 14.2748 6.4893C14.2018 6.47302 14.1331 6.45685 14.068 6.44068C13.9547 6.36774 13.8636 6.26856 13.7949 6.14302C13.7258 6.0175 13.6794 5.85951 13.6551 5.66917C13.6309 5.47871 13.6166 5.31489 13.6126 5.17715C13.6087 5.03959 13.6105 4.845 13.6187 4.59395C13.6271 4.34276 13.6309 4.17282 13.6309 4.08372C13.6309 3.7759 13.6369 3.44183 13.649 3.08142C13.6612 2.721 13.6711 2.43545 13.6794 2.22508C13.6877 2.01448 13.6915 1.7917 13.6915 1.55681C13.6915 1.32193 13.6772 1.13772 13.649 1.00402C13.6211 0.870498 13.5783 0.740887 13.5218 0.615232C13.465 0.489707 13.3818 0.392604 13.2727 0.323672C13.1634 0.254823 13.0275 0.200187 12.8658 0.159594C12.4364 0.0624492 11.8897 0.00989844 11.2255 0.00172859C9.71914 -0.0144409 8.75123 0.0828311 8.32196 0.293418C8.15189 0.382392 7.99798 0.503961 7.86037 0.657741C7.71455 0.835989 7.69421 0.933261 7.79948 0.949261C8.2855 1.02207 8.62957 1.19623 8.83208 1.47157L8.90505 1.61749C8.96181 1.72276 9.01849 1.90913 9.07521 2.17636C9.13185 2.44357 9.1684 2.73918 9.18448 3.06299C9.2249 3.65433 9.2249 4.16052 9.18448 4.5816C9.14393 5.00286 9.10564 5.3308 9.06908 5.56569C9.03253 5.80057 8.9779 5.9909 8.90505 6.13664C8.83208 6.28243 8.78352 6.37153 8.75918 6.40387C8.73488 6.43621 8.71463 6.45659 8.69855 6.46458C8.59327 6.50492 8.48379 6.52548 8.37047 6.52548C8.25699 6.52548 8.11938 6.46871 7.95743 6.35528C7.79553 6.24183 7.62749 6.08601 7.45332 5.88755C7.27916 5.68905 7.08275 5.41165 6.86399 5.05533C6.6454 4.69901 6.4186 4.27787 6.18372 3.79195L5.98939 3.43953C5.8679 3.21281 5.70196 2.8827 5.49137 2.44949C5.28066 2.0161 5.09441 1.59689 4.9325 1.19192C4.86778 1.02185 4.77055 0.892369 4.64099 0.803267L4.58018 0.766716C4.53976 0.734377 4.47487 0.700037 4.38585 0.663444C4.29671 0.626892 4.20369 0.60068 4.10641 0.584552L0.777667 0.608722C0.437513 0.608722 0.206715 0.685783 0.0851877 0.839691L0.0365516 0.912495C0.0122548 0.953048 0 1.01781 0 1.10696C0 1.19605 0.0242968 1.30542 0.0729329 1.43489C0.558868 2.57698 1.08731 3.67842 1.65827 4.73938C2.22922 5.80036 2.72537 6.655 3.14641 7.30255C3.56754 7.95056 3.9968 8.56215 4.43419 9.13702C4.87157 9.7121 5.16109 10.0806 5.30275 10.2425C5.44457 10.4048 5.55596 10.526 5.63694 10.607L5.94071 10.8985C6.13509 11.0929 6.42052 11.3258 6.79714 11.597C7.17385 11.8685 7.59089 12.1357 8.0485 12.3991C8.50617 12.6622 9.03862 12.8767 9.64612 13.0427C10.2535 13.2089 10.8448 13.2756 11.4198 13.2434H12.817C13.1003 13.2189 13.3149 13.1299 13.4609 12.9761L13.5092 12.9152C13.5417 12.8668 13.5722 12.7918 13.6002 12.6906C13.6287 12.5895 13.6428 12.478 13.6428 12.3566C13.6345 12.0084 13.661 11.6945 13.7216 11.4152C13.7822 11.1359 13.8511 10.9253 13.9284 10.7835C14.0055 10.6418 14.0925 10.5222 14.1895 10.4253C14.2865 10.3282 14.3557 10.2693 14.3963 10.249C14.4367 10.2287 14.4689 10.2148 14.4932 10.2065C14.6875 10.1418 14.9163 10.2045 15.1797 10.395C15.4431 10.5853 15.69 10.8203 15.9209 11.0997C16.1518 11.3792 16.4291 11.6929 16.753 12.041C17.0772 12.3894 17.3606 12.6483 17.6034 12.8186L17.8463 12.9645C18.0086 13.0616 18.2191 13.1508 18.4784 13.2317C18.7371 13.3127 18.9638 13.333 19.1584 13.2925L22.2684 13.244C22.5761 13.244 22.8153 13.193 22.9851 13.092C23.1553 12.9907 23.2563 12.8792 23.2889 12.758C23.3214 12.6365 23.3232 12.4987 23.2951 12.3446C23.2663 12.191 23.2379 12.0835 23.2097 12.0228Z" fill="white"/>
</g>
<defs>
<clipPath id="clip0_82_10338">
<rect width="23.3333" height="14" fill="white"/>
</clipPath>
</defs>
</svg>
