<svg width="43" height="43" viewBox="0 0 43 43" fill="none" xmlns="http://www.w3.org/2000/svg">
<g clip-path="url(#clip0_1160_713)">
<path d="M35.3552 0.307617H7.26021C6.58107 0.30841 5.92997 0.580561 5.44975 1.06437C4.96953 1.54817 4.6994 2.20413 4.69861 2.88833V40.3503C4.6994 41.0345 4.96953 41.6905 5.44975 42.1743C5.92997 42.6581 6.58107 42.9302 7.26021 42.931H35.3552C36.0343 42.9302 36.6854 42.6581 37.1656 42.1743C37.6458 41.6905 37.916 41.0345 37.9168 40.3503V2.88767C37.9158 2.20358 37.6456 1.54779 37.1654 1.06413C36.6852 0.580469 36.0342 0.30841 35.3552 0.307617ZM36.7599 40.3497C36.7596 40.7249 36.6114 41.0847 36.3481 41.35C36.0847 41.6153 35.7276 41.7645 35.3552 41.7649H7.26021C6.88775 41.7645 6.53065 41.6153 6.26729 41.35C6.00392 41.0847 5.85581 40.7249 5.85546 40.3497V2.88767C5.85598 2.51255 6.00417 2.15295 6.26752 1.88777C6.53087 1.62258 6.88787 1.47345 7.26021 1.4731H35.3552C35.7276 1.47345 36.0847 1.62267 36.3481 1.888C36.6114 2.15333 36.7596 2.5131 36.7599 2.88833V40.3497Z" fill="white"/>
<path d="M34.0331 3.6377H8.58233C8.50636 3.63765 8.43112 3.65269 8.36093 3.68196C8.29073 3.71123 8.22695 3.75416 8.17323 3.80828C8.11951 3.8624 8.0769 3.92666 8.04785 3.99738C8.01879 4.0681 8.00386 4.1439 8.00391 4.22044V11.5463C8.00386 11.6229 8.01879 11.6987 8.04785 11.7694C8.0769 11.8401 8.11951 11.9044 8.17323 11.9585C8.22695 12.0126 8.29073 12.0555 8.36093 12.0848C8.43112 12.1141 8.50636 12.1291 8.58233 12.1291H34.0331C34.109 12.1291 34.1843 12.1141 34.2545 12.0848C34.3247 12.0555 34.3884 12.0126 34.4422 11.9585C34.4959 11.9044 34.5385 11.8401 34.5675 11.7694C34.5966 11.6987 34.6115 11.6229 34.6115 11.5463V4.22044C34.6115 4.1439 34.5966 4.0681 34.5675 3.99738C34.5385 3.92666 34.4959 3.8624 34.4422 3.80828C34.3884 3.75416 34.3247 3.71123 34.2545 3.68196C34.1843 3.65269 34.109 3.63765 34.0331 3.6377ZM33.4546 10.9636H9.16076V4.80318H33.4546V10.9636Z" fill="white"/>
<path d="M24.4477 32.7822H18.1677C18.0143 32.7822 17.8671 32.8436 17.7587 32.9529C17.6502 33.0622 17.5892 33.2104 17.5892 33.365V39.0169C17.589 39.0935 17.6038 39.1695 17.6328 39.2404C17.6618 39.3112 17.7043 39.3757 17.7581 39.4299C17.8118 39.4842 17.8757 39.5272 17.946 39.5566C18.0162 39.5859 18.0916 39.601 18.1677 39.601H24.4477C24.5237 39.601 24.5989 39.586 24.6691 39.5567C24.7393 39.5274 24.8031 39.4845 24.8568 39.4304C24.9105 39.3763 24.9531 39.312 24.9822 39.2413C25.0112 39.1706 25.0262 39.0948 25.0261 39.0182V33.365C25.0261 33.2104 24.9652 33.0622 24.8567 32.9529C24.7482 32.8436 24.6011 32.7822 24.4477 32.7822ZM23.869 38.4355H18.7458V33.9477H23.869V38.4355Z" fill="white"/>
<path d="M14.872 32.7822H8.58233C8.42893 32.7822 8.2818 32.8436 8.17333 32.9529C8.06485 33.0622 8.00391 33.2104 8.00391 33.365V39.0169C8.00369 39.0935 8.01849 39.1695 8.04747 39.2404C8.07644 39.3112 8.11902 39.3757 8.17276 39.4299C8.2265 39.4842 8.29034 39.5272 8.36062 39.5566C8.43091 39.5859 8.50625 39.601 8.58233 39.601H14.872C14.9479 39.601 15.0232 39.586 15.0934 39.5567C15.1636 39.5274 15.2274 39.4845 15.2811 39.4304C15.3348 39.3763 15.3774 39.312 15.4064 39.2413C15.4355 39.1706 15.4504 39.0948 15.4504 39.0182V33.365C15.4504 33.2104 15.3894 33.0622 15.281 32.9529C15.1725 32.8436 15.0254 32.7822 14.872 32.7822ZM14.2935 38.4355H9.16076V33.9477H14.2935V38.4355Z" fill="white"/>
<path d="M24.4477 23.5396H18.1677C18.0917 23.5395 18.0165 23.5546 17.9463 23.5838C17.8761 23.6131 17.8123 23.656 17.7586 23.7101C17.7048 23.7643 17.6622 23.8285 17.6332 23.8992C17.6041 23.97 17.5892 24.0458 17.5892 24.1223V29.7739C17.5892 29.8504 17.6041 29.9262 17.6332 29.997C17.6622 30.0677 17.7048 30.1319 17.7586 30.1861C17.8123 30.2402 17.8761 30.2831 17.9463 30.3124C18.0165 30.3416 18.0917 30.3567 18.1677 30.3566H24.4477C24.5237 30.3567 24.5989 30.3416 24.6691 30.3124C24.7393 30.2831 24.8031 30.2402 24.8568 30.1861C24.9105 30.1319 24.9531 30.0677 24.9822 29.997C25.0112 29.9262 25.0262 29.8504 25.0261 29.7739V24.1223C25.0262 24.0458 25.0112 23.97 24.9822 23.8992C24.9531 23.8285 24.9105 23.7643 24.8568 23.7101C24.8031 23.656 24.7393 23.6131 24.6691 23.5838C24.5989 23.5546 24.5237 23.5395 24.4477 23.5396ZM23.8693 29.1912H18.7461V24.705H23.8693V29.1912Z" fill="white"/>
<path d="M14.872 23.5396H8.58233C8.50636 23.5395 8.43112 23.5546 8.36093 23.5838C8.29073 23.6131 8.22695 23.656 8.17323 23.7101C8.11951 23.7643 8.0769 23.8285 8.04785 23.8992C8.01879 23.97 8.00386 24.0458 8.00391 24.1223V29.7739C8.00386 29.8504 8.01879 29.9262 8.04785 29.997C8.0769 30.0677 8.11951 30.1319 8.17323 30.1861C8.22695 30.2402 8.29073 30.2831 8.36093 30.3124C8.43112 30.3416 8.50636 30.3567 8.58233 30.3566H14.872C14.9479 30.3567 15.0232 30.3416 15.0934 30.3124C15.1636 30.2831 15.2274 30.2402 15.2811 30.1861C15.3348 30.1319 15.3774 30.0677 15.4064 29.997C15.4355 29.9262 15.4504 29.8504 15.4504 29.7739V24.1223C15.4504 24.0458 15.4355 23.97 15.4064 23.8992C15.3774 23.8285 15.3348 23.7643 15.2811 23.7101C15.2274 23.656 15.1636 23.6131 15.0934 23.5838C15.0232 23.5546 14.9479 23.5395 14.872 23.5396ZM14.2935 29.1912H9.16076V24.705H14.2935V29.1912Z" fill="white"/>
<path d="M34.033 23.5396H27.7434C27.6674 23.5395 27.5922 23.5545 27.522 23.5838C27.4518 23.6131 27.388 23.656 27.3343 23.7101C27.2806 23.7643 27.238 23.8285 27.2089 23.8992C27.1799 23.97 27.1649 24.0458 27.165 24.1223V39.0172C27.1649 39.0937 27.1799 39.1695 27.2089 39.2402C27.238 39.311 27.2806 39.3752 27.3343 39.4293C27.388 39.4835 27.4518 39.5264 27.522 39.5557C27.5922 39.5849 27.6674 39.6 27.7434 39.5999H34.033C34.109 39.6 34.1843 39.5849 34.2544 39.5557C34.3246 39.5264 34.3884 39.4835 34.4422 39.4293C34.4959 39.3752 34.5385 39.311 34.5675 39.2402C34.5966 39.1695 34.6115 39.0937 34.6115 39.0172V24.1223C34.6115 24.0458 34.5966 23.97 34.5675 23.8992C34.5385 23.8285 34.4959 23.7643 34.4422 23.7101C34.3884 23.656 34.3246 23.6131 34.2544 23.5838C34.1843 23.5545 34.109 23.5395 34.033 23.5396ZM33.4546 38.4344H28.3218V24.705H33.4546V38.4344Z" fill="white"/>
<path d="M24.4477 14.2961H18.1677C18.0917 14.2961 18.0165 14.3111 17.9463 14.3404C17.8761 14.3697 17.8123 14.4126 17.7586 14.4667C17.7048 14.5208 17.6622 14.5851 17.6332 14.6558C17.6041 14.7265 17.5892 14.8023 17.5892 14.8789V20.5305C17.5892 20.607 17.6041 20.6828 17.6332 20.7535C17.6622 20.8243 17.7048 20.8885 17.7586 20.9426C17.8123 20.9968 17.8761 21.0397 17.9463 21.069C18.0165 21.0982 18.0917 21.1133 18.1677 21.1132H24.4477C24.5237 21.1133 24.5989 21.0982 24.6691 21.069C24.7393 21.0397 24.8031 20.9968 24.8568 20.9426C24.9105 20.8885 24.9531 20.8243 24.9822 20.7535C25.0112 20.6828 25.0262 20.607 25.0261 20.5305V14.8789C25.0262 14.8023 25.0112 14.7265 24.9822 14.6558C24.9531 14.5851 24.9105 14.5208 24.8568 14.4667C24.8031 14.4126 24.7393 14.3697 24.6691 14.3404C24.5989 14.3111 24.5237 14.2961 24.4477 14.2961ZM23.869 19.9477H18.7458V15.4616H23.869V19.9477Z" fill="white"/>
<path d="M14.872 14.2961H8.58233C8.50636 14.2961 8.43112 14.3111 8.36093 14.3404C8.29073 14.3697 8.22695 14.4126 8.17323 14.4667C8.11951 14.5208 8.0769 14.5851 8.04785 14.6558C8.01879 14.7265 8.00386 14.8023 8.00391 14.8789V20.5305C8.00386 20.607 8.01879 20.6828 8.04785 20.7535C8.0769 20.8243 8.11951 20.8885 8.17323 20.9426C8.22695 20.9968 8.29073 21.0397 8.36093 21.069C8.43112 21.0982 8.50636 21.1133 8.58233 21.1132H14.872C14.9479 21.1133 15.0232 21.0982 15.0934 21.069C15.1636 21.0397 15.2274 20.9968 15.2811 20.9426C15.3348 20.8885 15.3774 20.8243 15.4064 20.7535C15.4355 20.6828 15.4504 20.607 15.4504 20.5305V14.8789C15.4504 14.8023 15.4355 14.7265 15.4064 14.6558C15.3774 14.5851 15.3348 14.5208 15.2811 14.4667C15.2274 14.4126 15.1636 14.3697 15.0934 14.3404C15.0232 14.3111 14.9479 14.2961 14.872 14.2961ZM14.2935 19.9477H9.16076V15.4616H14.2935V19.9477Z" fill="white"/>
<path d="M34.033 14.2961H27.7434C27.6674 14.2961 27.5922 14.3111 27.522 14.3404C27.4518 14.3697 27.388 14.4126 27.3343 14.4667C27.2806 14.5208 27.238 14.5851 27.2089 14.6558C27.1799 14.7265 27.1649 14.8023 27.165 14.8789V20.5305C27.1649 20.607 27.1799 20.6828 27.2089 20.7535C27.238 20.8243 27.2806 20.8885 27.3343 20.9426C27.388 20.9968 27.4518 21.0397 27.522 21.069C27.5922 21.0982 27.6674 21.1133 27.7434 21.1132H34.033C34.109 21.1133 34.1843 21.0982 34.2544 21.069C34.3246 21.0397 34.3884 20.9968 34.4422 20.9426C34.4959 20.8885 34.5385 20.8243 34.5675 20.7535C34.5966 20.6828 34.6115 20.607 34.6115 20.5305V14.8789C34.6115 14.8023 34.5966 14.7265 34.5675 14.6558C34.5385 14.5851 34.4959 14.5208 34.4422 14.4667C34.3884 14.4126 34.3246 14.3697 34.2544 14.3404C34.1843 14.3111 34.109 14.2961 34.033 14.2961ZM33.4546 19.9477H28.3218V15.4616H33.4546V19.9477Z" fill="white"/>
</g>
<defs>
<clipPath id="clip0_1160_713">
<rect width="42.3077" height="42.6234" fill="white" transform="translate(0.15387 0.307617)"/>
</clipPath>
</defs>
</svg>
