<svg width="39" height="37" viewBox="0 0 39 37" fill="none" xmlns="http://www.w3.org/2000/svg">
<path d="M31.2281 7.0686H7.25509C6.83788 7.0686 6.49963 7.40684 6.49963 7.82406C6.49963 8.24127 6.83788 8.57951 7.25509 8.57951H31.2281C31.6453 8.57951 31.9836 8.24127 31.9836 7.82406C31.9836 7.40684 31.6453 7.0686 31.2281 7.0686Z" fill="white"/>
<path d="M31.2281 12.8438H7.25509C6.83788 12.8438 6.49963 13.182 6.49963 13.5992C6.49963 14.0164 6.83788 14.3547 7.25509 14.3547H31.2281C31.6453 14.3547 31.9836 14.0164 31.9836 13.5992C31.9836 13.182 31.6453 12.8438 31.2281 12.8438Z" fill="white"/>
<path d="M31.2281 18.6187H7.25509C6.83788 18.6187 6.49963 18.9569 6.49963 19.3741C6.49963 19.7913 6.83788 20.1296 7.25509 20.1296H31.2281C31.6453 20.1296 31.9836 19.7913 31.9836 19.3741C31.9836 18.9569 31.6453 18.6187 31.2281 18.6187Z" fill="white"/>
<path d="M33.6277 0.46167H4.85546C2.43267 0.46167 0.461548 2.4327 0.461548 4.85558V22.9479C0.461548 25.3707 2.43257 27.3418 4.85546 27.3418H25.0221C25.2378 27.3418 25.4381 27.4388 25.5719 27.6081L32.0844 35.8529C32.341 36.1779 32.7155 36.3549 33.1077 36.3549C33.2534 36.3549 33.4017 36.3305 33.5471 36.2799C34.0837 36.0935 34.4304 35.6061 34.4304 35.0381V27.2667C36.4676 26.8862 38.0216 25.0851 38.0216 22.9479V4.85548C38.0216 2.4327 36.0506 0.46167 33.6277 0.46167ZM36.5107 22.9479C36.5107 24.5169 35.2342 25.8097 33.6652 25.8297C33.2518 25.835 32.9194 26.1716 32.9194 26.5851V34.4725L26.7575 26.6715C26.3356 26.1372 25.703 25.8308 25.0221 25.8308H4.85546C3.26579 25.8308 1.97245 24.5374 1.97245 22.9478V4.85548C1.97245 3.26581 3.26569 1.97247 4.85546 1.97247H33.6277C35.2174 1.97247 36.5107 3.26581 36.5107 4.85548V22.9479Z" fill="white"/>
</svg>
