<svg width="20" height="14" viewBox="0 0 20 14" fill="none" xmlns="http://www.w3.org/2000/svg">
<g clip-path="url(#clip0_82_10340)">
<path d="M18.526 1.14781C17.8402 0.33255 16.5739 0 14.1557 0H5.37736C2.90374 0 1.61603 0.354001 0.932767 1.22196C0.266602 2.06823 0.266602 3.31514 0.266602 5.04089V8.33017C0.266602 11.6735 1.057 13.371 5.37736 13.371H14.1557C16.2528 13.371 17.4149 13.0776 18.1667 12.3581C18.9377 11.6203 19.2666 10.4157 19.2666 8.33017V5.04089C19.2666 3.22094 19.2151 1.96668 18.526 1.14781ZM12.4647 7.13965L8.47846 9.22289C8.38935 9.26947 8.29189 9.29258 8.19456 9.29258C8.08436 9.29258 7.97441 9.26291 7.87702 9.20395C7.69364 9.09284 7.58166 8.89408 7.58166 8.67969V4.52656C7.58166 4.31254 7.69333 4.11397 7.87635 4.00279C8.05942 3.89162 8.28711 3.88402 8.47705 3.98269L12.4633 6.05251C12.6661 6.15781 12.7934 6.36717 12.7937 6.59559C12.794 6.8242 12.6672 7.03386 12.4647 7.13965Z" fill="white"/>
</g>
<defs>
<clipPath id="clip0_82_10340">
<rect width="19" height="14" fill="white" transform="translate(0.266602)"/>
</clipPath>
</defs>
</svg>
